<?xml version="1.0" encoding="UTF-8"?>
<svg id="uuid-67096f82-4e01-4748-b686-dcc34acd0d19" data-name="Ebene 1" xmlns="http://www.w3.org/2000/svg" viewBox="0 0 615.029 346.4952">
  <defs>
    <style>
      .uuid-327ff2a5-d79f-4ae4-af57-0b3707d58a8a {
        fill: none;
      }

      .uuid-171358e4-0ce8-4d92-a1f5-164bc46c7777 {
        fill: #ffa300;
      }
    </style>
  </defs>
  <polygon class="uuid-171358e4-0ce8-4d92-a1f5-164bc46c7777" points="438.539 0 92.039 346.5 56.699 346.5 403.1989 0 438.539 0"/>
  <polygon class="uuid-171358e4-0ce8-4d92-a1f5-164bc46c7777" points="556.1091 0 209.619 346.5 174.269 346.5 520.769 0 556.1091 0"/>
  <polygon class="uuid-171358e4-0ce8-4d92-a1f5-164bc46c7777" points="615.029 23.31 615.029 58.66 327.189 346.5 291.839 346.5 615.029 23.31"/>
  <polygon class="uuid-171358e4-0ce8-4d92-a1f5-164bc46c7777" points="615.029 140.88 615.029 176.23 444.759 346.5 409.409 346.5 615.029 140.88"/>
  <polygon class="uuid-171358e4-0ce8-4d92-a1f5-164bc46c7777" points="615.029 258.45 615.029 293.8 562.329 346.5 526.9789 346.5 615.029 258.45"/>
  <polygon class="uuid-171358e4-0ce8-4d92-a1f5-164bc46c7777" points="320.969 0 -.001 320.97 -.001 285.62 285.619 0 320.969 0"/>
  <polygon class="uuid-171358e4-0ce8-4d92-a1f5-164bc46c7777" points="203.399 0 -.001 203.4 -.001 168.05 168.049 0 203.399 0"/>
  <polygon class="uuid-171358e4-0ce8-4d92-a1f5-164bc46c7777" points="85.829 0 -.001 85.83 -.001 50.48 50.479 0 85.829 0"/>
  <rect class="uuid-327ff2a5-d79f-4ae4-af57-0b3707d58a8a" x="-.001" width="615.03" height="346.5"/>
</svg>