<?xml version="1.0" encoding="utf-8"?>
<!-- Generator: Adobe Illustrator 27.3.1, SVG Export Plug-In . SVG Version: 6.00 Build 0)  -->
<svg version="1.1" id="Ebene_1" xmlns="http://www.w3.org/2000/svg" xmlns:xlink="http://www.w3.org/1999/xlink" x="0px" y="0px"
	 viewBox="0 0 941.8 706.4" style="enable-background:new 0 0 941.8 706.4;" xml:space="preserve">
<style type="text/css">
	.st0{fill:#333333;}
	.st1{fill:#FFFFFF;}
</style>
<rect class="st0" width="941.8" height="706.4"/>
<path class="st1" d="M189.7,102.3c-10.4-8.2-25.5-6.3-33.7,4.1s-6.3,25.5,4.1,33.7l592,464c10.4,8.2,25.5,6.3,33.7-4.1
	s6.3-25.5-4.1-33.7L504.2,348.8c54.6-14.6,94.7-64.4,94.7-123.6c0-70.7-57.3-128-128-128c-69.8,0-126.5,55.8-128,125.2L189.7,102.3z
	 M415.2,401.5c-93.8,5.1-168.3,82.9-168.3,178c0,16.4,13.3,29.7,29.7,29.7h388.6c3.9,0,7.6-0.7,11-2.1L415.2,401.5z"/>
</svg>
