<?xml version="1.0" encoding="utf-8"?>
<!-- Generator: Adobe Illustrator 27.3.1, SVG Export Plug-In . SVG Version: 6.00 Build 0)  -->
<svg version="1.1" id="Layer_1" xmlns="http://www.w3.org/2000/svg" xmlns:xlink="http://www.w3.org/1999/xlink" x="0px" y="0px"
	 viewBox="0 0 160 120" style="enable-background:new 0 0 160 120;" xml:space="preserve">
<style type="text/css">
	.st0{fill:#333333;}
	.st1{fill:#CCCCCC;stroke:#FFFFFF;stroke-width:0.75;stroke-miterlimit:10;}
</style>
<rect class="st0" width="160" height="120"/>
<g>
	<path class="st1" d="M21.8,19.1L71.6,5.7L71.5,9l-3.3,0.9l-36,62.1l3.4,12.6l35.6-61.8l-0.1,6.4L36.7,88.9l3.3,12.6l30.6-53
		l-0.1,6.4L41.6,105c-0.2,0.3-0.4,0.5-0.6,0.6l0.8,3.1c0.3,0.9,0.9,1.8,1.7,2.2c0.8,0.5,1.8,0.6,2.8,0.4l3.1-0.8
		c0-0.3,0.1-0.5,0.2-0.7l20.5-35.5l0,6.3l-16.6,28.7l12.6-3.3l3.6-6.3l-0.2,8.5L47.2,114c-1.8,0.5-3.6,0.2-5.1-0.6s-2.7-2.3-3.2-4.1
		l-22-81.9c-0.5-1.8-0.2-3.6,0.6-5.1C18.5,20.7,19.9,19.6,21.8,19.1L21.8,19.1z M127.1,94.2l0.6,0.1l2.6,7.4h1.8l2.6-7.4l0.6-0.1v-1
		h-3v1l0.6,0.1l-0.4,1.2h-2.8l-0.4-1.2l0.6-0.1v-1h-3L127.1,94.2L127.1,94.2z M130.3,96.8h1.9l-0.9,3.1l0,0L130.3,96.8L130.3,96.8z
		 M84.4,25.3l0.6-0.1l2.6-7.4h1.8l2.6,7.4l0.6,0.1v1h-3v-1l0.6-0.1L89.8,24H87l-0.4,1.2l0.6,0.1v1h-3L84.4,25.3L84.4,25.3z
		 M87.4,22.7h1.9l-0.9-3.1l0,0L87.4,22.7L87.4,22.7z M115.1,74.9l-3.2-7.1c5.6,5.3,14.1,2.4,14.3-5.8c0.2-5.9-5.5-13.6-16.6-23.6
		c-11,10-16.7,17.6-16.1,23.6c0.7,7.2,8,10.5,13.6,5.8l-2.2,7.1H115.1L115.1,74.9z M34.5,18.8L23.2,38.4L26.6,51l20.5-35.5
		L34.5,18.8L34.5,18.8z M22,34.2L30.3,20l-7.8,2c-0.9,0.3-1.8,0.9-2.2,1.7c-0.5,0.8-0.6,1.8-0.4,2.8L22,34.2L22,34.2z M51.3,14.4
		L27.6,55.3L31,67.9l32.8-56.9L51.3,14.4L51.3,14.4z"/>
	<path class="st1" d="M141.3,12.5c-1.2-1.2-2.9-1.9-4.7-1.9H83.3c-1.9,0-3.4,0.7-4.6,1.9l-0.1,0.1c-1.2,1.2-1.9,2.9-1.9,4.7v84.9
		c0,1.9,0.7,3.5,1.9,4.7l0,0c1.2,1.2,2.9,1.9,4.7,1.9h53.2c1.9,0,3.5-0.7,4.7-1.9c1.2-1.2,1.9-2.9,1.9-4.7V17.2
		C143.2,15.4,142.5,13.7,141.3,12.5z M140.2,102.1c0,1-0.5,1.9-1.1,2.6c-0.6,0.6-1.6,1-2.6,1H83.3c-1,0-1.9-0.4-2.6-1
		c-0.6-0.6-1.1-1.6-1.1-2.6V17.2c0-1,0.4-1.9,1.1-2.6l0.1-0.1c0.6-0.6,1.6-1,2.5-1h53.2c1,0,1.9,0.4,2.6,1.1
		c0.6,0.6,1.1,1.6,1.1,2.6L140.2,102.1L140.2,102.1z"/>
</g>
</svg>
