<?xml version="1.0" encoding="utf-8"?>
<!-- Generator: Adobe Illustrator 27.1.1, SVG Export Plug-In . SVG Version: 6.00 Build 0)  -->
<svg version="1.1" id="Layer_1" xmlns="http://www.w3.org/2000/svg" xmlns:xlink="http://www.w3.org/1999/xlink" x="0px" y="0px"
	 viewBox="0 0 160 120" style="enable-background:new 0 0 160 120;" xml:space="preserve">
<style type="text/css">
	.st0{stroke:#000000;stroke-width:1.1101;stroke-miterlimit:10;}
</style>
<g>
	<path class="st0" d="M17.2,15.9L70.9,1.5l-0.1,3.5l-3.6,1L28.4,73l3.7,13.6l38.4-66.6l-0.1,6.9L33.3,91.2l3.6,13.6l33-57.2
		l-0.1,6.9l-31.2,54c-0.2,0.3-0.4,0.5-0.6,0.6l0.9,3.3c0.3,1,1,1.9,1.8,2.4c0.9,0.5,1.9,0.7,3,0.4l3.3-0.9c0-0.3,0.1-0.5,0.2-0.8
		l22.1-38.3L69.3,82L51.4,113l13.6-3.6l3.9-6.8l-0.2,9.2l-24.1,6.4c-1.9,0.5-3.9,0.2-5.5-0.7c-1.6-0.9-2.9-2.5-3.4-4.4L12,24.8
		c-0.5-1.9-0.2-3.9,0.7-5.5C13.7,17.6,15.2,16.4,17.2,15.9L17.2,15.9z M130.8,96.9l0.7,0.1l2.8,8h1.9l2.8-8l0.7-0.1v-1.1h-3.2v1.1
		l0.6,0.1l-0.4,1.3h-3l-0.4-1.3l0.6-0.1v-1.1h-3.2V96.9L130.8,96.9z M134.2,99.7h2.1l-1,3.3h0L134.2,99.7L134.2,99.7z M84.7,22.6
		l0.7-0.1l2.8-8h1.9l2.8,8l0.7,0.1v1.1h-3.2v-1.1l0.6-0.1l-0.4-1.3h-3l-0.4,1.3l0.6,0.1v1.1h-3.2L84.7,22.6L84.7,22.6z M88,19.8h2.1
		l-1-3.3h0L88,19.8L88,19.8z M117.9,76.1l-3.4-7.7c6,5.7,15.2,2.6,15.4-6.3c0.2-6.4-5.9-14.7-17.9-25.5c-11.9,10.8-18,19-17.4,25.5
		c0.8,7.8,8.6,11.3,14.7,6.3l-2.4,7.7H117.9L117.9,76.1z M30.9,15.6L18.7,36.7l3.7,13.6L44.5,12L30.9,15.6L30.9,15.6z M17.5,32.2
		l8.9-15.3L18,19.1c-1,0.3-1.9,1-2.4,1.8c-0.5,0.9-0.7,1.9-0.4,3L17.5,32.2L17.5,32.2z M49,10.8L23.5,54.9l3.7,13.6L62.6,7.1
		L49,10.8L49,10.8z"/>
	<path class="st0" d="M146.1,8.8c-1.3-1.3-3.1-2.1-5.1-2.1H83.6c-2,0-3.7,0.8-5,2l-0.1,0.1c-1.3,1.3-2.1,3.1-2.1,5.1v91.5
		c0,2,0.8,3.8,2.1,5.1h0c1.3,1.3,3.1,2.1,5.1,2.1H141c2,0,3.8-0.8,5.1-2.1c1.3-1.3,2.1-3.1,2.1-5.1V13.9
		C148.2,11.9,147.4,10.1,146.1,8.8z M144.9,105.4c0,1.1-0.5,2.1-1.2,2.8c-0.7,0.7-1.7,1.1-2.8,1.1H83.6c-1.1,0-2.1-0.4-2.8-1.1
		c-0.7-0.7-1.2-1.7-1.2-2.8V13.9c0-1.1,0.4-2.1,1.2-2.8l0.1-0.1c0.7-0.7,1.7-1.1,2.7-1.1H141c1.1,0,2.1,0.4,2.8,1.2
		c0.7,0.7,1.2,1.7,1.2,2.8V105.4z"/>
</g>
</svg>
